<?xml version="1.0" encoding="UTF-8"?>
<svg xmlns="http://www.w3.org/2000/svg" xmlns:xlink="http://www.w3.org/1999/xlink" viewBox="0 0 100 100" width="100px" height="100px">
<g id="surface7208604">
<path style=" stroke:none;fill-rule:nonzero;fill:rgb(100%,100%,100%);fill-opacity:1;" d="M 84.761719 11.109375 C 84.125 10.402344 83.222656 10 82.277344 10 L 17.722656 10 C 16.777344 10 15.875 10.402344 15.238281 11.109375 C 14.605469 11.816406 14.308594 12.761719 14.410156 13.699219 L 21.75 79.777344 C 21.898438 81.121094 22.847656 82.242188 24.148438 82.613281 L 49.078125 89.738281 C 49.378906 89.824219 49.691406 89.867188 49.996094 89.867188 C 50.304688 89.867188 50.613281 89.824219 50.914062 89.738281 L 75.847656 82.613281 C 77.148438 82.242188 78.09375 81.121094 78.242188 79.777344 L 85.585938 13.699219 C 85.691406 12.761719 85.394531 11.816406 84.761719 11.109375 Z M 68.386719 43.578125 L 66.898438 67.863281 L 50.105469 73.351562 L 33.3125 67.863281 L 32.675781 56.25 L 41.175781 56.25 L 41.390625 61.53125 L 50.105469 64.488281 L 58.824219 61.53125 L 59.460938 52.03125 L 40.753906 52.03125 L 40.328125 43.582031 L 59.886719 43.582031 L 60.523438 35.136719 L 31.1875 35.136719 L 30.550781 26.6875 L 69.449219 26.6875 Z M 68.386719 43.578125 "/>
</g>
</svg>
