<?xml version="1.0" encoding="UTF-8"?>
<svg xmlns="http://www.w3.org/2000/svg" xmlns:xlink="http://www.w3.org/1999/xlink" viewBox="0 0 96 96" width="96px" height="96px">
<g id="surface7200893">
<path style=" stroke:none;fill-rule:nonzero;fill:rgb(100%,100%,100%);fill-opacity:1;" d="M 86.398438 7.679688 L 9.601562 7.679688 C 8.539062 7.679688 7.679688 8.539062 7.679688 9.601562 L 7.679688 86.398438 C 7.679688 87.460938 8.539062 88.320312 9.601562 88.320312 L 86.398438 88.320312 C 87.460938 88.320312 88.320312 87.460938 88.320312 86.398438 L 88.320312 9.601562 C 88.320312 8.539062 87.460938 7.679688 86.398438 7.679688 Z M 55.679688 50.773438 L 46.078125 50.773438 L 46.078125 80.640625 L 38.398438 80.640625 L 38.398438 50.773438 L 28.800781 50.773438 L 28.800781 44.160156 L 55.679688 44.160156 Z M 57.832031 78.933594 L 57.832031 70.953125 C 57.832031 70.953125 62.191406 74.238281 67.425781 74.238281 C 72.65625 74.238281 72.453125 70.816406 72.453125 70.347656 C 72.453125 65.382812 57.628906 65.382812 57.628906 54.382812 C 57.628906 39.425781 79.230469 45.328125 79.230469 45.328125 L 78.960938 52.4375 C 78.960938 52.4375 75.339844 50.023438 71.246094 50.023438 C 67.15625 50.023438 65.679688 51.96875 65.679688 54.046875 C 65.679688 59.414062 80.636719 58.878906 80.636719 69.679688 C 80.640625 86.3125 57.832031 78.933594 57.832031 78.933594 Z M 57.832031 78.933594 "/>
</g>
</svg>
